<svg width="80" height="31" viewBox="0 0 80 31" fill="none" xmlns="http://www.w3.org/2000/svg">
<path fill-rule="evenodd" clip-rule="evenodd" d="M0.691297 30.8571H8.45281C35.6109 2.99858 75.5606 0.224571 79.5372 0.0150552C79.6444 0.00994905 79.7517 0.00493054 79.8591 0C79.8591 0 79.7493 0.00387898 79.5372 0.0150552C28.6818 2.43799 5.26327 24.5908 0.0258789 29.7982L0.691297 30.8571ZM1.13486 11.3446H9.70955L15.9926 16.1849C13.9229 17.2438 11.9272 18.3025 10.153 19.3615L0.691406 12.2521L1.13486 11.3446ZM25.7501 30.8571L17.3972 24.6555C18.59 23.6094 19.87 22.608 21.1367 21.617C21.5186 21.3182 21.8992 21.0204 22.2758 20.7227L34.6944 30.0251L34.3248 30.8571H25.7501Z" fill="white"/>
</svg>
